<?xml version="1.0" encoding="utf-8"?>
<!-- Generator: Adobe Illustrator 23.0.1, SVG Export Plug-In . SVG Version: 6.00 Build 0)  -->
<svg version="1.1" id="Capa_1" xmlns="http://www.w3.org/2000/svg" xmlns:xlink="http://www.w3.org/1999/xlink" x="0px" y="0px"
	 viewBox="0 0 512 512" style="enable-background:new 0 0 512 512;" xml:space="preserve">
<style type="text/css">
	.st0{fill:#EB1962;}
</style>
<g>
	<path class="st0" d="M314.9,256c-13.2,0-23.9,10.7-23.9,23.9c0,13.2,10.7,23.9,23.9,23.9c13.2,0,23.9-10.7,23.9-23.9
		C338.8,266.7,328.1,256,314.9,256z M314.9,279.9L314.9,279.9h11.9H314.9z"/>
	<path class="st0" d="M219.3,279.9c0-13.2-10.7-23.9-23.9-23.9c-13.2,0-23.9,10.7-23.9,23.9c0,13.2,10.7,23.9,23.9,23.9
		C208.6,303.8,219.3,293.1,219.3,279.9z M195.4,279.9l11.9,0L195.4,279.9L195.4,279.9z"/>
	<path class="st0" d="M296.3,339.8c-24.6,17.8-57.7,17.8-82.3,0c-5.3-3.8-12.8-2.7-16.7,2.7c-3.9,5.3-2.7,12.8,2.7,16.7
		c16.5,11.9,35.8,17.9,55.2,17.9c19.3,0,38.7-6,55.2-17.9c5.3-3.9,6.5-11.3,2.7-16.7C309.1,337.1,301.7,336,296.3,339.8z"/>
	<circle class="st0" cx="386.6" cy="136.5" r="11.9"/>
	<path class="st0" d="M0,0v512h512V0H0z M422.2,286.3c0.1,1.8,0.2,3.7,0.2,5.5c0,65.9-75.1,119.5-167.3,119.5
		c-92.2,0-167.3-53.6-167.3-119.5c0-2.2,0.1-4.3,0.3-6.4C73.5,277.3,64,261.5,64,244.1c0-26.4,21.4-47.8,47.8-47.8
		c10.4,0,20.1,3.2,28,9.1c28.9-19.7,67.1-31,107.2-32.4l27.7-65c2.3-5.3,8-8.3,13.7-7l68.2,15.9c6.4-9.8,17.4-16.2,29.9-16.2
		c19.8,0,35.8,16.1,35.8,35.8c0,19.8-16.1,35.8-35.8,35.8c-18.5,0-33.6-14.1-35.5-32.2l-58.3-13.6l-20,47
		c37.2,2.8,72.1,13.8,98.8,32.4c8.2-6.2,18.2-9.7,28.7-9.7c26.4,0,47.8,21.4,47.8,47.8C448,262.2,437.8,278.4,422.2,286.3z"/>
</g>
</svg>
