<?xml version="1.0"?>
<svg xmlns="http://www.w3.org/2000/svg" width="512px" height="512px" viewBox="0 0 512 512"><g><g><path d="M464,72H48A40.04,40.04,0,0,0,8,112V336a40.04,40.04,0,0,0,40,40H204.68l-11.33,32H160a8,8,0,0,0-8,8v24a8,8,0,0,0,8,8H456a24.032,24.032,0,0,0,24-24V372.67A40,40,0,0,0,504,336V112A40.04,40.04,0,0,0,464,72ZM48,360a24.032,24.032,0,0,1-24-24v-8H320v32Zm272,16v32h-2.35l-11.33-32Zm-19.32,32H210.32l11.33-32h67.7ZM168,432v-8H320a23.841,23.841,0,0,0,1.38,8Zm296-8a8.011,8.011,0,0,1-8,8H344a8.011,8.011,0,0,1-8-8V240a8.011,8.011,0,0,1,8-8h18.23l6.18,18.53A8,8,0,0,0,376,256h48a8,8,0,0,0,7.59-5.47L437.77,232H456a8.011,8.011,0,0,1,8,8ZM379.1,232h41.8l-2.67,8H381.77ZM488,336a24.013,24.013,0,0,1-8,17.89V240a24.032,24.032,0,0,0-24-24H344a24.032,24.032,0,0,0-24,24v72H24V112A24.032,24.032,0,0,1,48,88H464a24.032,24.032,0,0,1,24,24Z" data-original="#000000" class="active-path" data-old_color="#000000" fill="#EB1962"/><path d="M104,336H48a8,8,0,0,0,0,16h56a8,8,0,0,0,0-16Z" data-original="#000000" class="active-path" data-old_color="#000000" fill="#EB1962"/><path d="M136,336h-8a8,8,0,0,0,0,16h8a8,8,0,0,0,0-16Z" data-original="#000000" class="active-path" data-old_color="#000000" fill="#EB1962"/></g></g> </svg>
