<?xml version="1.0" encoding="utf-8"?>
<!-- Generator: Adobe Illustrator 23.0.1, SVG Export Plug-In . SVG Version: 6.00 Build 0)  -->
<svg version="1.1" id="Vrstva_1" xmlns="http://www.w3.org/2000/svg" xmlns:xlink="http://www.w3.org/1999/xlink" x="0px" y="0px"
	 viewBox="0 0 512 512" style="enable-background:new 0 0 512 512;" xml:space="preserve">
<style type="text/css">
	.st0{fill:#EB1962;}
</style>
<g>
	<path class="st0" d="M357.2,213.6c-30.7,0-40.6,29.6-43.8,47.2l-0.1,0.6l-3.5,16.6c14.4,11.7,30.4,18.9,47.4,18.9
		c23,0,41.7-18.6,41.7-41.6S380.2,213.6,357.2,213.6z"/>
	<path class="st0" d="M0,0v512h512V0H0z M357,339.2c-21.6,0-40.4-6.6-56.8-17.1l-18.7,88h-43.1l25.8-121.4
		c-12.2-15.2-22.2-32.5-30.4-49.6v18.4c0,44.9-36.5,81.8-81.4,81.8c-44.9,0-81.4-36.9-81.4-81.8V147.8h42.1v109.8
		c0,21.7,17.6,39.3,39.3,39.3s39.3-17.6,39.3-39.3V147.9h42.2c8.3,28.6,22.6,62.5,41.4,90.8c12.4-41.9,42.7-67.3,81.9-67.3v0
		c46.2,0,83.7,37.6,83.6,83.7C440.8,301.4,403.2,339.2,357,339.2z"/>
</g>
</svg>
